<?xml version="1.0" encoding="UTF-8"?>
<svg version="1.1" xmlns="http://www.w3.org/2000/svg" width="512" height="512">
<path d="M0 0 C0.88856689 -0.00700928 1.77713379 -0.01401855 2.69262695 -0.02124023 C5.6183229 -0.03878886 8.54304489 -0.02720857 11.46875 -0.01367188 C13.50846542 -0.01636769 15.54817959 -0.02025085 17.58789062 -0.02526855 C21.85819765 -0.03115936 26.1281695 -0.02261394 30.3984375 -0.00390625 C35.86619751 0.01888287 41.33317211 0.00575757 46.80090332 -0.01819611 C51.01145319 -0.03266525 55.22181752 -0.02804293 59.43237305 -0.01768494 C61.44816176 -0.01502075 63.46396743 -0.01827656 65.47973633 -0.02760315 C68.29944337 -0.03778699 71.11788682 -0.02224194 73.9375 0 C74.76677002 -0.00809692 75.59604004 -0.01619385 76.45043945 -0.02453613 C83.01406361 0.07115348 86.66034048 2.17454247 91.3125 6.89648438 C93.92983002 12.61880733 93.54541345 18.24214424 93.46875 24.45507812 C93.49195313 26.32969727 93.49195313 26.32969727 93.515625 28.2421875 C93.48621035 35.16566173 93.30129578 39.98501067 88.96875 45.51757812 C87.328125 47.07617188 87.328125 47.07617188 85.71875 47.95507812 C85.19796875 48.26316406 84.6771875 48.57125 84.140625 48.88867188 C81.96875 49.51757812 81.96875 49.51757812 73.96875 49.51757812 C73.96875 57.76757812 73.96875 66.01757812 73.96875 74.51757812 C80.23875 74.18757813 86.50875 73.85757813 92.96875 73.51757812 C93.95875 71.53757812 94.94875 69.55757813 95.96875 67.51757812 C98.36620526 66.3188505 99.85738776 66.38663535 102.534729 66.37713623 C103.97728813 66.36857101 103.97728813 66.36857101 105.44898987 66.35983276 C106.50770798 66.3587149 107.56642609 66.35759705 108.65722656 66.35644531 C109.76954147 66.35148041 110.88185638 66.3465155 112.02787781 66.34140015 C115.72171642 66.32674969 119.41551206 66.31997128 123.109375 66.31445312 C125.67047121 66.30870351 128.2315674 66.30294576 130.79266357 66.29718018 C135.48166642 66.2880073 140.17065202 66.2817107 144.85966229 66.27868342 C151.75621041 66.2742064 158.65255996 66.2566767 165.54904771 66.22768283 C171.52485597 66.20343374 177.50057055 66.19573768 183.4764328 66.19400787 C186.01695587 66.19097905 188.55747806 66.18294285 191.09796906 66.16982269 C194.6530308 66.15277546 198.20760932 66.15463968 201.76269531 66.16113281 C202.8133165 66.15191803 203.86393768 66.14270325 204.94639587 66.13320923 C211.91794325 66.17311282 216.16103201 67.28416609 221.71875 71.70507812 C227.17973242 78.53130616 226.31095361 87.53803706 226.28442383 95.87133789 C226.28126183 97.94731114 226.30479046 100.02185811 226.33007812 102.09765625 C226.40991567 118.20047937 226.40991567 118.20047937 221.25 124.67382812 C220.6621875 125.11726563 220.074375 125.56070313 219.46875 126.01757812 C218.8809375 126.48164062 218.293125 126.94570312 217.6875 127.42382812 C210.94631204 131.71367501 204.68412174 129.51757812 195.96875 129.51757812 C195.96875 157.89757812 195.96875 186.27757812 195.96875 215.51757812 C202.56875 215.51757812 209.16875 215.51757812 215.96875 215.51757812 C216.62875 213.86757812 217.28875 212.21757812 217.96875 210.51757812 C224.36418416 206.25395535 233.61663753 208.25306503 240.84375 209.64257812 C262.78040192 214.9015313 280.92692404 226.95314245 292.96435547 246.32055664 C299.636271 257.47044203 304.73114909 269.30266056 303.96875 282.51757812 C304.5978125 282.48277344 305.226875 282.44796875 305.875 282.41210938 C312.60658808 282.19921276 318.60280407 282.41562796 323.76171875 287.16992188 C329.66734345 293.80498241 329.18143152 299.73283338 329.21875 308.33007812 C329.2496875 310.09448242 329.2496875 310.09448242 329.28125 311.89453125 C329.33045457 322.77489163 329.33045457 322.77489163 325.96875 327.51757812 C318.66652349 334.50231653 315.49643834 334.51757812 304.96875 334.51757812 C304.96875 375.43757813 304.96875 416.35757813 304.96875 458.51757812 C308.92875 458.51757812 312.88875 458.51757812 316.96875 458.51757812 C322.21069934 460.92013824 325.35220181 462.9472873 328.16162109 468.12915039 C329.82728212 473.05811647 329.59444511 478.26924074 329.54516602 483.42358398 C329.53129762 485.44812613 329.56542606 487.4680343 329.60351562 489.4921875 C329.59371785 496.05996184 329.46301124 501.36560576 325.72631836 506.90649414 C320.58001897 511.62387568 315.87872003 513.11144699 309.00544739 513.02094269 C308.22956925 513.02675645 307.45369112 513.03257021 306.65430152 513.03856015 C304.0567327 513.05314783 301.46011062 513.03928104 298.86254883 513.0255127 C296.98058241 513.0301221 295.0986196 513.03647528 293.21666431 513.04442167 C288.04677846 513.06113263 282.87718764 513.05286051 277.70730066 513.0404768 C272.13121184 513.03143591 266.55517416 513.04539127 260.97909546 513.05639648 C250.05619847 513.07419653 239.13341133 513.07033508 228.21051002 513.05874592 C219.33439211 513.04971773 210.45830502 513.04848494 201.58218384 513.05284119 C200.3195886 513.05345412 199.05699337 513.05406705 197.75613767 513.05469856 C195.19131652 513.05597744 192.62649537 513.05727429 190.06167424 513.05858892 C166.68913812 513.06967371 143.3166725 513.05817224 119.94415005 513.03721853 C98.6082424 513.01823612 77.27243025 513.01993464 55.93652344 513.0390625 C31.96490167 513.06048148 7.99333958 513.0689004 -15.97829533 513.05661345 C-18.53375816 513.05533923 -21.08922099 513.05408175 -23.64468384 513.05284119 C-25.53076041 513.05191553 -25.53076041 513.05191553 -27.45493954 513.05097118 C-36.32189126 513.04751538 -45.18880914 513.0533516 -54.05575562 513.0627594 C-64.85946613 513.07396996 -75.66306037 513.07095911 -86.46675754 513.04963642 C-91.98051399 513.0391134 -97.49407649 513.03502563 -103.00783157 513.04823303 C-108.05354104 513.06013664 -113.09887643 513.05362775 -118.14455187 513.03232282 C-119.97150382 513.02784816 -121.79848726 513.03014235 -123.62541902 513.03982598 C-126.10671261 513.05197094 -128.58672106 513.03953486 -131.06794739 513.02094269 C-131.77913888 513.03030735 -132.49033037 513.03967202 -133.22307312 513.04932046 C-139.22259475 512.9593237 -143.3798042 510.95440063 -147.78662109 506.90429688 C-151.8555064 500.85571897 -151.79588847 494.66054844 -151.68310547 487.53613281 C-151.65628521 485.52022454 -151.68293361 483.50987964 -151.71484375 481.49414062 C-151.67734225 473.97883905 -151.30557021 468.18629294 -146.03125 462.51757812 C-139.29867812 456.90710156 -135.92423393 458.51757812 -126.03125 458.51757812 C-126.03125 349.94757813 -126.03125 241.37757812 -126.03125 129.51757812 C-129.99125 129.51757812 -133.95125 129.51757812 -138.03125 129.51757812 C-143.57142306 127.44001323 -146.78094404 125.58805542 -150.03125 120.51757812 C-151.34375143 116.58007382 -151.2334399 112.79280128 -151.26953125 108.68554688 C-151.277603 107.81617996 -151.28567474 106.94681305 -151.29399109 106.05110168 C-151.30781801 104.21108995 -151.31854639 102.37105272 -151.32641602 100.53100586 C-151.34362227 97.72590194 -151.3875192 94.92197896 -151.43164062 92.1171875 C-151.44176871 90.3274826 -151.45028445 88.53776771 -151.45703125 86.74804688 C-151.47453934 85.91347458 -151.49204742 85.07890228 -151.51008606 84.21903992 C-151.49012707 78.82471908 -150.59579886 75.80735502 -147.03125 71.51757812 C-142.50462392 67.4325741 -139.4170444 66.39189211 -133.39350891 66.39732361 C-132.2198175 66.39594894 -131.0461261 66.39457428 -129.83686829 66.39315796 C-128.54790146 66.39675323 -127.25893463 66.40034851 -125.9309082 66.40405273 C-124.561025 66.40433478 -123.19114166 66.40417653 -121.82125854 66.40361023 C-118.10046727 66.40332294 -114.37970814 66.40920864 -110.65892434 66.41618419 C-106.77116829 66.42242909 -102.88341153 66.42302243 -98.99565125 66.42420959 C-91.63276443 66.42731955 -84.26989244 66.43552843 -76.90701216 66.44555908 C-68.52500013 66.45673062 -60.14298739 66.4622333 -51.76096976 66.46725452 C-34.51772102 66.47771131 -17.27448764 66.49550536 -0.03125 66.51757812 C-0.03125 60.90757813 -0.03125 55.29757813 -0.03125 49.51757812 C-2.34125 49.51757812 -4.65125 49.51757812 -7.03125 49.51757812 C-12.2903471 47.62430317 -14.82133594 44.91974598 -18.03125 40.51757812 C-19.72869776 35.42523483 -19.30019214 30.0990599 -19.34375 24.76757812 C-19.37275391 23.5996875 -19.40175781 22.43179687 -19.43164062 21.22851562 C-19.48166715 14.44030111 -19.36089064 9.88834297 -15.03125 4.51757812 C-9.99144643 0.32171179 -6.27207063 -0.06123998 0 0 Z " fill="#010102" transform="translate(167.03125,-0.517578125)"/>
<path d="M0 0 C32.67 0 65.34 0 99 0 C97.53534677 3.66163308 96.05405549 6.92045674 94.19921875 10.3671875 C93.64057129 11.40633301 93.08192383 12.44547852 92.50634766 13.51611328 C91.90612793 14.6245459 91.3059082 15.73297852 90.6875 16.875 C90.06665527 18.02597168 89.44581055 19.17694336 88.80615234 20.36279297 C84.67374666 28.00462662 80.42728653 35.57752014 76.125 43.125 C74.55603843 45.90305439 72.99084517 48.68315915 71.42919922 51.46533203 C70.51425271 53.08797889 69.59205835 54.70657339 68.66064453 56.31982422 C62.84605509 66.43916243 59.83806542 75.00235321 62.67578125 86.8125 C65.52854643 95.05661435 70.48848051 100.97754107 78.25 104.9375 C82.57225288 106.91741397 86.10626677 108.12386088 90.88037109 108.14717102 C91.88671097 108.15432632 92.89305084 108.16148163 93.92988586 108.16885376 C95.58494392 108.17288712 95.58494392 108.17288712 97.2734375 108.17700195 C98.4363884 108.18357315 99.59933929 108.19014435 100.79753113 108.19691467 C104.65668805 108.21666736 108.51580597 108.22831677 112.375 108.23828125 C113.69345917 108.24235678 115.01191833 108.2464323 116.37033081 108.25063133 C122.63287442 108.26968547 128.89540627 108.28391172 135.15797329 108.2922433 C142.36693694 108.30199386 149.57559176 108.32825481 156.78444672 108.36874419 C162.36765031 108.39901654 167.95076599 108.41372295 173.53404999 108.41702431 C176.86289659 108.41936374 180.19115285 108.43018214 183.5199585 108.45348549 C187.2440213 108.47792831 190.96728717 108.47690148 194.69140625 108.4699707 C196.32217354 108.48918579 196.32217354 108.48918579 197.98588562 108.50878906 C208.23555337 108.43961623 216.84338324 105.99031853 224.34765625 98.79296875 C230.45592085 92.16485184 232.74918757 84.93185857 232.9128418 75.99633789 C232.47460201 65.96563946 226.65761005 57.45791466 221.74072266 48.99658203 C220.03809848 46.06558496 218.3782872 43.11444032 216.73046875 40.15234375 C212.3941745 32.38025945 207.9627083 24.66387177 203.51171875 16.95703125 C202.67447266 15.50321045 202.67447266 15.50321045 201.8203125 14.02001953 C200.75289138 12.16831201 199.68144023 10.31892025 198.60546875 8.47216797 C198.13109375 7.64990723 197.65671875 6.82764648 197.16796875 5.98046875 C196.74797607 5.25754639 196.3279834 4.53462402 195.89526367 3.78979492 C195 2 195 2 195 0 C226.68 0 258.36 0 291 0 C291 108.9 291 217.8 291 330 C265.59 330 240.18 330 214 330 C213.96261719 323.29558594 213.92523438 316.59117187 213.88671875 309.68359375 C213.85643628 305.4316151 213.82528655 301.17967818 213.79101562 296.92773438 C213.73672373 290.18158078 213.68561223 283.43550971 213.65356445 276.68920898 C213.6275204 271.24907253 213.58710972 265.80921374 213.53681374 260.36924934 C213.52015257 258.29571046 213.50863363 256.22212356 213.50238609 254.14852715 C213.49273703 251.23991795 213.46466753 248.33201791 213.43237305 245.42358398 C213.43380814 244.56978149 213.43524323 243.715979 213.4367218 242.83630371 C213.33004148 236.02482927 211.75694464 230.56718188 207.25 225.25 C206.80140625 224.69828125 206.3528125 224.1465625 205.890625 223.578125 C200.18059736 218.81190358 194.20569522 218.55350588 187.0925293 218.56420898 C186.12245941 218.55413315 185.15238953 218.54405731 184.15292358 218.53367615 C180.95990332 218.50528127 177.76735726 218.49932378 174.57421875 218.49609375 C172.3437328 218.48644663 170.11324874 218.47635371 167.88276672 218.46583557 C163.21159466 218.44789525 158.54058884 218.44231238 153.86938477 218.4440918 C147.90078881 218.44439648 141.93326496 218.40344633 135.9649229 218.35177517 C131.35876119 218.31832348 126.75285619 218.31233694 122.14658546 218.31392097 C119.94706338 218.31039417 117.7475337 218.2971995 115.54813194 218.27392387 C99.55429398 217.59318693 99.55429398 217.59318693 86 225 C82.57520863 228.88261371 80.88920462 232.82263834 80.84178162 238.0052948 C80.8319928 238.81717758 80.82220398 239.62906036 80.81211853 240.46554565 C80.80636307 241.35243073 80.8006076 242.2393158 80.79467773 243.15307617 C80.78477814 244.08985703 80.77487854 245.02663788 80.76467896 245.99180603 C80.73305911 249.09216778 80.70830454 252.19254486 80.68359375 255.29296875 C80.66302465 257.44102886 80.64202819 259.58908492 80.62062073 261.73713684 C80.56539557 267.39404013 80.5159882 273.05097997 80.46777344 278.70794678 C80.40873533 285.49363967 80.34250488 292.27926567 80.27747345 299.06490326 C80.17945834 309.37656136 80.09060603 319.68826214 80 330 C53.6 330 27.2 330 0 330 C0 221.1 0 112.2 0 0 Z " fill="#D5E9FC" transform="translate(57,128)"/>
<path d="M0 0 C14.52 0 29.04 0 44 0 C44.02578125 4.26421875 44.0515625 8.5284375 44.078125 12.921875 C44.1098714 16.35375654 44.14552554 19.78554878 44.18379211 23.21736145 C44.22293268 26.82249724 44.25542525 30.42739367 44.27099609 34.03271484 C44.2863054 37.51491526 44.3209963 40.99646337 44.36830902 44.47837067 C44.39004407 46.43215445 44.39246139 48.38612309 44.39434814 50.34002686 C44.59835188 62.96554516 48.37803134 72.69690806 54.75 83.4375 C55.91571985 85.45086424 57.07969998 87.46523649 58.2421875 89.48046875 C58.85416992 90.53669434 59.46615234 91.59291992 60.09667969 92.68115234 C64.1238071 99.70331371 67.9955347 106.8131898 71.87988281 113.91503906 C74.95161476 119.52276389 78.04358623 125.1120887 81.2661438 130.63491821 C82.68373953 133.06568017 84.08643301 135.50490444 85.48883057 137.94445801 C86.47066374 139.63693051 87.47500844 141.31628105 88.47998047 142.99511719 C92.1786401 149.44596459 94.23705052 154.51544983 93 162 C91.3308714 166.74383917 89.16666048 169.22222634 85 172 C81.53681695 173.60900531 78.81335199 174.25238891 75.00405884 174.26742554 C73.532239 174.28022049 73.532239 174.28022049 72.03068542 174.29327393 C70.96562271 174.29236755 69.90056 174.29146118 68.80322266 174.29052734 C67.1072419 174.30060318 67.1072419 174.30060318 65.3769989 174.31088257 C61.63930873 174.32988061 57.90179794 174.33378764 54.1640625 174.3359375 C51.56480841 174.34236389 48.96555505 174.34909213 46.36630249 174.35610962 C40.91735855 174.36808673 35.46848574 174.37187564 30.01953125 174.37060547 C23.73181866 174.36940431 17.44444947 174.39050455 11.15682375 174.4220928 C5.09609509 174.45145023 -0.96444786 174.45858015 -7.02525711 174.45738602 C-9.59844999 174.45974549 -12.17164544 174.46858837 -14.74479294 174.48405075 C-18.34496258 174.50365976 -21.94424955 174.49789177 -25.54443359 174.48583984 C-27.13595497 174.50269836 -27.13595497 174.50269836 -28.7596283 174.51989746 C-35.94967629 174.45877675 -40.28707474 173.28043067 -45.77734375 168.4296875 C-49.47778704 163.4708443 -49.80830682 159.05323449 -49 153 C-47.80914285 149.54409682 -46.12503967 146.47921476 -44.3125 143.3125 C-43.8184668 142.41096191 -43.32443359 141.50942383 -42.81542969 140.58056641 C-41.2325434 137.70731596 -39.6193177 134.85285249 -38 132 C-36.9668674 130.15787754 -35.93431109 128.31543175 -34.90234375 126.47265625 C-32.77039058 122.67970867 -30.62557841 118.89436267 -28.47265625 115.11328125 C-10.00254379 87.4151238 -10.00254379 87.4151238 -0.79467773 56.8762207 C-0.77473251 55.61513992 -0.75478729 54.35405914 -0.73423767 53.05476379 C-0.71725467 51.67843753 -0.70037581 50.30210998 -0.68359375 48.92578125 C-0.66301803 47.51758725 -0.6420214 46.10939935 -0.62062073 44.70121765 C-0.56546378 40.99739519 -0.51602646 37.29351759 -0.46777344 33.58959961 C-0.41751179 29.80903227 -0.36190226 26.02854389 -0.30664062 22.24804688 C-0.19863139 14.83209179 -0.09955908 7.41609266 0 0 Z " fill="#EEF1F3" transform="translate(182,48)"/>
<path d="M0 0 C0.91304561 -0.00453111 1.82609122 -0.00906223 2.76680487 -0.01373065 C5.83910952 -0.02643327 8.91123822 -0.0247505 11.98356628 -0.02310181 C14.18114451 -0.02908343 16.37872062 -0.03588813 18.57629395 -0.04345703 C24.5556785 -0.06116236 30.53500585 -0.06581434 36.51441407 -0.0670886 C41.50205903 -0.0689851 46.48969058 -0.07633984 51.47733039 -0.08343279 C62.57087099 -0.09880025 73.664389 -0.10476917 84.7579389 -0.10342209 C85.75666059 -0.10330222 85.75666059 -0.10330222 86.77555847 -0.10317993 C87.77549948 -0.10305729 87.77549948 -0.10305729 88.79564133 -0.10293217 C99.59702287 -0.10211943 110.3982649 -0.12125282 121.1996061 -0.14945666 C132.28967779 -0.17818592 143.37969193 -0.19163065 154.46980304 -0.19026911 C160.69631004 -0.18975866 166.92265926 -0.19548792 173.14913368 -0.21662521 C179.00552709 -0.23596237 184.86161148 -0.23616288 190.71801567 -0.22159195 C192.86826655 -0.21949708 195.01853654 -0.22424492 197.16875458 -0.23631287 C200.1030213 -0.25171523 203.03621588 -0.24249 205.97045898 -0.22705078 C207.2485325 -0.24248147 207.2485325 -0.24248147 208.55242568 -0.25822389 C213.89917752 -0.1960039 216.92439631 0.73180104 221.17570496 4.26742554 C225.58274406 9.74114394 224.6610076 16.31828047 224.62174988 22.98690796 C224.61324206 25.19529527 224.64202085 27.40109039 224.67375183 29.60922241 C224.6753643 31.02523727 224.67478544 32.44125666 224.67179871 33.85726929 C224.67365173 35.13464966 224.67550476 36.41203003 224.67741394 37.7281189 C223.96827011 42.73077493 222.05400839 45.77684249 218.10203457 48.91304779 C214.03633928 50.79475216 210.50257483 50.68937977 206.07293701 50.66183472 C205.154099 50.66792582 204.23526099 50.67401692 203.2885794 50.68029261 C200.20859275 50.69694646 197.12901844 50.69214335 194.04899597 50.68734741 C191.84126861 50.69468631 189.6335451 50.70327201 187.42582703 50.7130127 C181.42794375 50.73525529 175.43019773 50.73815802 169.43227887 50.73626518 C164.42712999 50.73614562 159.42201034 50.74470397 154.41686958 50.7530427 C141.93522881 50.77338696 129.45365501 50.77442321 116.9720084 50.76723558 C106.13515086 50.76165952 95.29852969 50.78248902 84.46172739 50.81559604 C73.33090868 50.84933706 62.20017635 50.86402633 51.06929916 50.85987902 C44.821554 50.8578091 38.57404426 50.86332857 32.32634163 50.88777161 C26.45180046 50.90999507 20.57775212 50.90819716 14.70320892 50.88784409 C12.54650682 50.88442637 10.38977183 50.88955572 8.23311424 50.90382767 C5.28998371 50.92196121 2.34853555 50.90931449 -0.59454346 50.8888855 C-1.44911918 50.90140335 -2.3036949 50.91392119 -3.18416685 50.92681837 C-7.37257703 50.86443643 -10.02070629 50.53103052 -13.33865452 47.85358429 C-18.51997188 42.46273669 -17.1237084 35.10409324 -17.1743927 28.01034546 C-17.19094328 26.31196379 -17.21822189 24.61365153 -17.25642395 22.9156189 C-17.31129163 20.4635109 -17.33308018 18.01303407 -17.34773254 15.56039429 C-17.37040192 14.80501877 -17.39307129 14.04964325 -17.41642761 13.27137756 C-17.40051851 9.28626025 -17.01940842 7.50813849 -14.4790802 4.37411499 C-9.45232666 0.3851637 -6.24446457 -0.02252178 0 0 Z " fill="#020203" transform="translate(101.82429504394531,263.7325744628906)"/>
<path d="M0 0 C30.69 0 61.38 0 93 0 C93 40.92 93 81.84 93 124 C62.31 124 31.62 124 0 124 C0 83.08 0 42.16 0 0 Z " fill="#B2D9FD" transform="translate(363,334)"/>
<path d="M0 0 C1.06456852 0.0070235 1.06456852 0.0070235 2.15064347 0.01418889 C2.90536663 0.011282 3.66008979 0.00837512 4.43768334 0.00538015 C6.99310879 -0.0019793 9.54829858 0.00505095 12.10372269 0.01190388 C13.94368564 0.00960179 15.78364767 0.00642697 17.62360775 0.00244939 C22.70035451 -0.0059419 27.7770266 -0.00175378 32.85377371 0.00442183 C38.3207725 0.00892769 43.787758 0.00197188 49.25475419 -0.00353801 C59.97276139 -0.0124537 70.69074066 -0.01050035 81.40874898 -0.00471273 C90.11578154 -0.00020477 98.82280625 0.00042043 107.52983963 -0.00176036 C108.76680232 -0.00206683 110.00376501 -0.0023733 111.27821141 -0.00268905 C113.79069889 -0.00332847 116.30318636 -0.00397689 118.81567383 -0.00463423 C141.72890632 -0.01018098 164.64212657 -0.00441869 187.55535619 0.00605096 C208.48758354 0.01554269 229.41978657 0.01469346 250.35201371 0.00512898 C273.85109614 -0.00557238 297.35016786 -0.00979451 320.84925282 -0.00364649 C323.35274676 -0.00300936 325.85624071 -0.00238062 328.35973465 -0.00176036 C329.59165643 -0.00145181 330.82357821 -0.00114326 332.09283096 -0.00082536 C340.79424927 0.00090497 349.49565898 -0.00202079 358.19707596 -0.00671947 C368.79424089 -0.01231578 379.39137616 -0.01083829 389.98853767 -0.00015798 C395.40032804 0.00511563 400.8120689 0.00712689 406.22385895 0.00054371 C411.17071585 -0.0053831 416.11747698 -0.00219516 421.06432509 0.00849882 C422.8610579 0.01074682 424.65779867 0.00956556 426.45452642 0.00474724 C428.88277889 -0.00126888 431.31069635 0.00483633 433.73893082 0.01418889 C434.44864317 0.00950655 435.15835551 0.00482422 435.88957429 0 C440.71648639 0.03757041 440.71648639 0.03757041 442.94478714 2.26587117 C443.18770707 4.40478718 443.18770707 4.40478718 443.17525589 7.01977742 C443.1733223 7.95628132 443.17138871 8.89278523 443.16939652 9.85766804 C443.15715043 10.83800007 443.14490433 11.8183321 443.13228714 12.82837117 C443.13164261 13.81257039 443.13099808 14.7967696 443.13033402 15.81079304 C443.08496247 23.12569585 443.08496247 23.12569585 441.94478714 24.26587117 C439.56304274 24.36553267 437.21025928 24.39950375 434.8279506 24.39171231 C434.07070494 24.39316575 433.31345928 24.39461919 432.53326678 24.39611667 C429.96330806 24.39980321 427.39340767 24.39627806 424.82344925 24.39285481 C422.97538801 24.39400558 421.127327 24.39559281 419.27926648 24.39758205 C414.17554522 24.40178141 409.07184252 24.39968197 403.96812117 24.39659584 C398.47386113 24.39434441 392.9796044 24.39782006 387.48534501 24.40057576 C376.71206336 24.40503522 365.93878865 24.40405621 355.16550672 24.40116312 C346.41410702 24.39890977 337.66270927 24.39859626 328.91130936 24.39968693 C327.66837174 24.39984017 326.42543412 24.3999934 325.14483172 24.40015128 C322.62026298 24.40047098 320.09569424 24.4007952 317.57112551 24.40112387 C294.54405584 24.40389769 271.51698947 24.40101535 248.4899206 24.39578127 C227.45046002 24.39103535 206.41100549 24.39145997 185.37154496 24.39624226 C161.75601906 24.4015921 138.14049584 24.40370448 114.52496922 24.40063 C112.00940112 24.40031143 109.49383303 24.39999706 106.97826493 24.39968693 C105.12143638 24.39945552 105.12143638 24.39945552 103.22709614 24.39921943 C94.4806384 24.39835401 85.73418279 24.39981768 76.98772538 24.40216649 C66.33671713 24.40496372 55.68571625 24.40422786 45.03470886 24.39888574 C39.59470809 24.39624768 34.15471963 24.39524542 28.71471894 24.39853489 C23.74322834 24.40149573 18.77176159 24.39990864 13.80027318 24.39455734 C11.9934334 24.39343224 10.18659164 24.39402637 8.37975311 24.39643313 C5.94034723 24.3994354 3.50102506 24.39639444 1.06162369 24.39171231 C0.3457898 24.39405347 -0.3700441 24.39639464 -1.10756993 24.39880675 C-5.94106251 24.38002151 -5.94106251 24.38002151 -7.05521286 23.26587117 C-7.30620209 19.7937831 -7.24043382 16.30846497 -7.24271286 12.82837117 C-7.25495895 11.84803914 -7.26720504 10.8677071 -7.27982223 9.85766804 C-7.28272262 8.45291218 -7.28272262 8.45291218 -7.28568161 7.01977742 C-7.28979049 6.15683064 -7.29389938 5.29388386 -7.29813278 4.40478718 C-6.77950853 -0.16171237 -3.92862829 0.03057859 0 0 Z " fill="#8C9BA7" transform="translate(38.05521285533905,472.7341288328171)"/>
<path d="M0 0 C0.80052795 0.00030212 1.60105591 0.00060425 2.42584229 0.00091553 C3.28014832 0.02156067 4.13445435 0.04220581 5.01464844 0.06347656 C5.89683044 0.06913635 6.77901245 0.07479614 7.68792725 0.08062744 C10.50051557 0.10298565 13.31182138 0.15318024 16.12402344 0.20410156 C18.03285918 0.22416732 19.94171493 0.24241796 21.85058594 0.25878906 C26.52555789 0.30284856 31.19957336 0.37187172 35.87402344 0.45410156 C35.87988968 1.02151062 35.88575592 1.58891968 35.89179993 2.17352295 C35.95572837 8.078576 36.0401464 13.98308376 36.13647461 19.88769531 C36.16973132 22.09139823 36.1977609 24.29518648 36.22045898 26.49902344 C36.25399081 29.66671111 36.30630679 32.83361625 36.36230469 36.00097656 C36.36869461 36.98652527 36.37508453 37.97207397 36.38166809 38.98748779 C36.40146225 39.90814026 36.42125641 40.82879272 36.44165039 41.77734375 C36.45830498 42.98979767 36.45830498 42.98979767 36.47529602 44.22674561 C36.97160325 46.99919821 37.96649505 48.40739898 39.87402344 50.45410156 C42.15291686 50.93578884 42.15291686 50.93578884 44.56152344 50.70410156 C45.77388672 50.64996094 45.77388672 50.64996094 47.01074219 50.59472656 C47.625625 50.54832031 48.24050781 50.50191406 48.87402344 50.45410156 C49.82056484 47.61447735 50.02396568 45.75003627 50.0793457 42.79907227 C50.09929092 41.85832352 50.11923615 40.91757477 50.13978577 39.94831848 C50.15649826 38.93573471 50.17321075 37.92315094 50.19042969 36.87988281 C50.21121078 35.84091354 50.23199188 34.80194427 50.25340271 33.73149109 C50.31882999 30.40992903 50.37775164 27.0882874 50.43652344 23.76660156 C50.47971513 21.51594226 50.52332963 19.26529104 50.56738281 17.01464844 C50.67450442 11.49455046 50.7762836 5.97437319 50.87402344 0.45410156 C56.47900365 0.33030825 62.08318466 0.23967138 67.68920898 0.17944336 C69.59527451 0.15433157 71.50124403 0.12023511 73.40698242 0.0769043 C76.15014342 0.01610412 78.8920293 -0.01214089 81.63574219 -0.03417969 C82.48488693 -0.05998611 83.33403168 -0.08579254 84.20890808 -0.11238098 C85.0093605 -0.11275864 85.80981293 -0.11313629 86.63452148 -0.11352539 C87.33401413 -0.12462845 88.03350677 -0.13573151 88.75419617 -0.14717102 C92.27782245 0.85227828 93.69618487 2.54984846 95.87402344 5.45410156 C96.56869161 8.46742039 96.50739916 11.38635209 96.44165039 14.46704102 C96.44238052 15.36509964 96.44311066 16.26315826 96.44386292 17.18843079 C96.44038708 20.14870175 96.40152608 23.10738768 96.36230469 26.06738281 C96.35297655 28.12289063 96.34586044 30.17840958 96.34086609 32.2339325 C96.32179647 37.63797827 96.27269542 43.04134965 96.21734619 48.44512939 C96.15714903 54.93199985 96.13423735 61.41909611 96.10507965 67.90616608 C96.05663099 77.75594661 95.96081478 87.6042481 95.87402344 97.45410156 C81.02402344 97.45410156 66.17402344 97.45410156 50.87402344 97.45410156 C50.37902344 87.05910156 50.37902344 87.05910156 49.87402344 76.45410156 C46.22324117 73.06266755 46.22324117 73.06266755 42.24902344 73.57910156 C38.61466426 74.1214092 38.61466426 74.1214092 36.87402344 77.45410156 C36.54402344 84.05410156 36.21402344 90.65410156 35.87402344 97.45410156 C21.35402344 97.45410156 6.83402344 97.45410156 -8.12597656 97.45410156 C-8.2864118 74.4049058 -8.2864118 74.4049058 -8.32128906 64.59082031 C-8.34521391 57.8903336 -8.37353712 51.19006523 -8.42773438 44.48974609 C-8.47114983 39.08865209 -8.49510484 33.68779218 -8.50548553 28.28653717 C-8.5128846 26.22440149 -8.52733303 24.16227882 -8.54889679 22.10024261 C-8.57787334 19.2149828 -8.58193494 16.33069407 -8.58007812 13.4453125 C-8.59445923 12.59007492 -8.60884033 11.73483734 -8.62365723 10.85368347 C-8.59725656 7.07019225 -8.56509116 5.08246777 -6.35546875 1.92053223 C-3.94950979 0.33803195 -2.84208756 -0.03597579 0 0 Z " fill="#5FB6FE" transform="translate(160.1259765625,360.5458984375)"/>
<path d="M0 0 C0.96486328 -0.04576172 1.92972656 -0.09152344 2.92382812 -0.13867188 C9.0430059 -0.233703 13.43155866 0.5540352 18.36206055 4.30297852 C22.6618769 8.72519877 25.2760887 14.18225644 28.0625 19.625 C28.73997285 20.90884768 29.41978244 22.19146474 30.10180664 23.47290039 C31.15575735 25.45483768 32.20752135 27.43769707 33.25056458 29.42539978 C35.67631511 34.04473655 38.19062662 38.60518229 40.76953125 43.140625 C41.11719543 43.75420364 41.46485962 44.36778229 41.82305908 44.99995422 C43.4843682 47.93088586 45.15200212 50.85779787 46.82861328 53.7800293 C47.71589111 55.35651245 47.71589111 55.35651245 48.62109375 56.96484375 C49.40311157 58.33757446 49.40311157 58.33757446 50.20092773 59.73803711 C51.5574495 62.69935224 52.16073558 65.19592122 52.4375 68.4375 C50.30706522 73.00271739 50.30706522 73.00271739 47.4375 74.4375 C44.50462642 74.55705334 41.59479663 74.61590419 38.66088867 74.63037109 C37.75179245 74.63854858 36.84269623 74.64672607 35.90605164 74.65515137 C32.88919743 74.68002079 29.8723903 74.69652482 26.85546875 74.7109375 C25.82648279 74.71626118 24.79749683 74.72158485 23.73732948 74.72706985 C18.29160939 74.75380741 12.84591227 74.7731809 7.40014648 74.78759766 C1.77075131 74.80425237 -3.8580592 74.84903559 -9.48723316 74.8999691 C-13.81178981 74.93359742 -18.1362069 74.94517024 -22.46088219 74.95082474 C-24.53615477 74.95754878 -26.61141781 74.97280062 -28.68656349 74.99671555 C-31.5907645 75.02827669 -34.49337814 75.02841745 -37.39770508 75.02099609 C-38.25555603 75.03740143 -39.11340698 75.05380676 -39.99725342 75.07070923 C-44.34674798 75.02519334 -46.05691606 74.82529318 -49.62113953 72.09146118 C-51.5625 69.4375 -51.5625 69.4375 -51.7890625 66.390625 C-50.43142412 60.53797511 -46.90806888 55.33220496 -43.9375 50.1875 C-42.91667093 48.39762629 -41.89889753 46.60603638 -40.88117981 44.81439209 C-40.17749876 43.57648985 -39.47239268 42.33939665 -38.76591492 41.10308838 C-36.2783915 36.73991162 -33.87724423 32.33655557 -31.51171875 27.90625 C-30.53163264 26.08591808 -29.55023676 24.26629861 -28.56842041 22.44689941 C-27.64854796 20.73141495 -26.74374111 19.00787887 -25.83935547 17.28417969 C-19.27158249 5.19446918 -13.59355998 0.25614895 0 0 Z " fill="#030303" transform="translate(203.5625,132.5625)"/>
<path d="M0 0 C6.6 0 13.2 0 20 0 C20.99 1.98 21.98 3.96 23 6 C25.85909051 7.42954525 28.63740148 7.46261788 31.8125 7.8125 C50.22400368 10.08872659 66.88202289 17.63795305 79 32 C86.82852664 42.79796778 93 54.47250262 93 68 C62.31 68 31.62 68 0 68 C0 45.56 0 23.12 0 0 Z " fill="#AE65D9" transform="translate(363,215)"/>
<path d="M0 0 C6.6 0 13.2 0 20 0 C20.66 1.65 21.32 3.3 22 5 C24.3661862 6.1830931 25.80782204 6.13480368 28.44776917 6.15148926 C29.38304443 6.15983292 30.3183197 6.16817657 31.28193665 6.17677307 C32.31110703 6.18095749 33.3402774 6.18514191 34.40063477 6.18945312 C35.48196686 6.19774643 36.56329895 6.20603973 37.67739868 6.21458435 C40.03079816 6.232012 42.38421525 6.24717133 44.73764229 6.26036072 C48.45567057 6.28133045 52.17361003 6.3083567 55.8915863 6.33703613 C64.4537414 6.40190109 73.01595018 6.45770233 81.57817078 6.51302338 C90.04908526 6.56785431 98.51995643 6.62650451 106.99079704 6.69187927 C110.66528295 6.71856031 114.33977304 6.73930954 118.01429749 6.7598877 C120.25245376 6.77648235 122.49060801 6.79335345 124.72875977 6.81054688 C125.75995438 6.81473129 126.79114899 6.81891571 127.85359192 6.82322693 C128.78604736 6.83157059 129.71850281 6.83991425 130.67921448 6.84851074 C131.49424722 6.85366447 132.30927996 6.85881821 133.14901066 6.86412811 C135 7 135 7 136 8 C136 18.23 136 28.46 136 39 C91.78 39 47.56 39 2 39 C0.10649449 34.26623622 -0.26619184 31.00365194 -0.1953125 26.07421875 C-0.1924826 25.32662796 -0.18965271 24.57903717 -0.18673706 23.80879211 C-0.17559469 21.4348612 -0.15050162 19.06131575 -0.125 16.6875 C-0.11496249 15.0722711 -0.10583799 13.45703624 -0.09765625 11.84179688 C-0.07738131 7.89426539 -0.03822275 3.94756118 0 0 Z " fill="#B2D9FD" transform="translate(241,74)"/>
<path d="M0 0 C1.50298346 0.00138269 1.50298346 0.00138269 3.03633022 0.00279331 C4.18202984 0.00141865 5.32772945 0.00004398 6.50814724 -0.00137234 C8.41030499 0.00402058 8.41030499 0.00402058 10.35089016 0.00952244 C11.69092208 0.00980431 13.03095415 0.00964657 14.37098598 0.00907993 C18.01958415 0.00879196 21.66814971 0.01468863 25.31674027 0.02165389 C29.12576493 0.02788749 32.93479026 0.02849123 36.74381924 0.0296793 C43.96156731 0.0327926 51.17930031 0.04100597 58.39704174 0.05102879 C66.61214234 0.06218997 74.82724364 0.06770039 83.04234993 0.07272422 C99.94590528 0.08318858 116.84944593 0.10078799 133.75298977 0.12304783 C133.84064045 4.14374207 133.89359995 8.16418793 133.94048977 12.18554783 C133.96562649 13.3192783 133.99076321 14.45300877 134.01666164 15.6210947 C134.0311636 17.27915134 134.0311636 17.27915134 134.04595852 18.97070408 C134.06952419 20.48676243 134.06952419 20.48676243 134.09356594 22.03344822 C133.75298977 25.12304783 133.75298977 25.12304783 130.75298977 32.12304783 C86.53298977 32.12304783 42.31298977 32.12304783 -3.24701023 32.12304783 C-3.24701023 0.17780852 -3.24701023 0.17780852 0 0 Z " fill="#B2D9FD" transform="translate(34.247010231018066,80.87695217132568)"/>
<path d="M0 0 C15.23763113 -0.02311949 30.47526024 -0.04097948 45.71290493 -0.05181217 C52.78753187 -0.056975 59.86214774 -0.06401744 66.93676758 -0.07543945 C73.75778878 -0.08644681 80.57879844 -0.09227618 87.39982796 -0.09487724 C90.00866948 -0.09673205 92.61751033 -0.1003537 95.22634697 -0.10573006 C98.86632552 -0.11293643 102.50625575 -0.11399111 106.14624023 -0.11352539 C107.23668137 -0.11712067 108.3271225 -0.12071594 109.4506073 -0.12442017 C110.43643799 -0.1230455 111.42226868 -0.12167084 112.43797302 -0.12025452 C113.73078768 -0.12163721 113.73078768 -0.12163721 115.04971981 -0.12304783 C117 0 117 0 118 1 C118.12667764 3.99018161 118.18520838 6.94694108 118.1875 9.9375 C118.19974609 10.77474609 118.21199219 11.61199219 118.22460938 12.47460938 C118.22654297 13.27576172 118.22847656 14.07691406 118.23046875 14.90234375 C118.23457764 15.63960693 118.23868652 16.37687012 118.24291992 17.13647461 C118 19 118 19 116 21 C113.94228935 21.24609566 113.94228935 21.24609566 111.35568237 21.24050903 C110.37689117 21.24325836 109.39809998 21.24600769 108.38964844 21.24884033 C107.31215332 21.24164978 106.2346582 21.23445923 105.12451172 21.22705078 C103.99280548 21.22734283 102.86109924 21.22763489 101.69509888 21.22793579 C97.9398848 21.22653812 94.18486708 21.21095626 90.4296875 21.1953125 C87.83179838 21.19158393 85.23390787 21.18873622 82.63601685 21.18673706 C76.4878341 21.17987089 70.33973287 21.16409462 64.19158089 21.14403808 C57.19288685 21.12170136 50.19418946 21.11069127 43.19546866 21.10064721 C28.79693993 21.07972896 14.39847503 21.04413732 0 21 C0 14.07 0 7.14 0 0 Z " fill="#B2D9FE" transform="translate(363,298)"/>
<path d="M0 0 C33 0 66 0 100 0 C100 6.6 100 13.2 100 20 C67 20 34 20 0 20 C0 13.4 0 6.8 0 0 Z " fill="#F6F8F9" transform="translate(211,279)"/>
<path d="M0 0 C32.01 0 64.02 0 97 0 C97 6.6 97 13.2 97 20 C64.99 20 32.98 20 0 20 C0 13.4 0 6.8 0 0 Z " fill="#F4F6F7" transform="translate(99,279)"/>
<path d="M0 0 C4.95 0 9.9 0 15 0 C15 40.92 15 81.84 15 124 C10.05 124 5.1 124 0 124 C0 83.08 0 42.16 0 0 Z " fill="#8AC9FE" transform="translate(441,334)"/>
<path d="M0 0 C1.83111328 -0.14308594 1.83111328 -0.14308594 3.69921875 -0.2890625 C7.72390879 0.7290753 8.12460145 1.15264039 10.359375 4.4140625 C11.37442412 6.13329665 12.35678061 7.87209064 13.3125 9.625 C14.10684448 11.03338135 14.10684448 11.03338135 14.91723633 12.47021484 C16.60373401 15.50466233 18.2446012 18.5600807 19.875 21.625 C20.98003518 23.68773233 22.08549746 25.75023592 23.19140625 27.8125 C23.97668701 29.28396484 23.97668701 29.28396484 24.77783203 30.78515625 C26.61353346 34.18205078 28.51588793 37.53823615 30.44506836 40.8828125 C31.3125 42.625 31.3125 42.625 31.3125 44.625 C10.8525 44.625 -9.6075 44.625 -30.6875 44.625 C-29.26196503 40.34839508 -28.09911925 37.28475055 -25.9296875 33.5 C-25.11999512 32.0780835 -25.11999512 32.0780835 -24.29394531 30.62744141 C-23.43687988 29.14123291 -23.43687988 29.14123291 -22.5625 27.625 C-21.98081055 26.60712402 -21.39912109 25.58924805 -20.79980469 24.54052734 C-19.63726838 22.50721717 -18.47259617 20.47512652 -17.30566406 18.44433594 C-15.89135691 15.98018098 -14.48557431 13.51156832 -13.0859375 11.0390625 C-7.05300893 0.39797543 -7.05300893 0.39797543 0 0 Z " fill="#D7AFEC" transform="translate(203.6875,147.375)"/>
<path d="M0 0 C26.73 0 53.46 0 81 0 C81 6.27 81 12.54 81 19 C54.27 19 27.54 19 0 19 C0 12.73 0 6.46 0 0 Z " fill="#F6F8F9" transform="translate(164,15)"/>
<path d="M0 0 C6.496875 -0.103125 12.99375 -0.20625 19.6875 -0.3125 C21.73026123 -0.35802002 23.77302246 -0.40354004 25.87768555 -0.45043945 C27.50567993 -0.46504915 29.13369263 -0.47778869 30.76171875 -0.48828125 C32.01885681 -0.526651 32.01885681 -0.526651 33.3013916 -0.5657959 C34.51864929 -0.56670227 34.51864929 -0.56670227 35.76049805 -0.56762695 C36.45999069 -0.57873001 37.15948334 -0.58983307 37.88017273 -0.60127258 C41.40379901 0.39817671 42.82216144 2.0957469 45 5 C45.69466817 8.01331882 45.63337572 10.93225053 45.56762695 14.01293945 C45.56835709 14.91099808 45.56908722 15.8090567 45.56983948 16.73432922 C45.56636365 19.69460018 45.52750265 22.65328612 45.48828125 25.61328125 C45.47895311 27.66878907 45.471837 29.72430802 45.46684265 31.77983093 C45.44777303 37.18387671 45.39867198 42.58724809 45.34332275 47.99102783 C45.29212983 53.50759763 45.26932848 59.02427664 45.24414062 64.54101562 C45.19055367 75.36097301 45.10524084 86.18043037 45 97 C40.05 97 35.1 97 30 97 C29.505 49.48 29.505 49.48 29 1 C19.76 1 10.52 1 1 1 C1 15.52 1 30.04 1 45 C0.67 45 0.34 45 0 45 C0 30.15 0 15.3 0 0 Z " fill="#269FF3" transform="translate(211,361)"/>
<path d="M0 0 C17.70621734 4.63375475 31.78146297 14.40070002 41.36328125 30.09765625 C46.49120489 39.19084781 50 47.45245024 50 58 C19.31 58 -11.38 58 -43 58 C-43 57.67 -43 57.34 -43 57 C-17.26 57 8.48 57 35 57 C32.22423577 43.61757408 32.22423577 43.61757408 27.1875 31.5 C26.84203125 30.84257812 26.4965625 30.18515625 26.140625 29.5078125 C23.28799732 24.22052456 20.05076901 19.45139452 16 15 C15.04287109 13.94039062 15.04287109 13.94039062 14.06640625 12.859375 C10.21413606 8.80435375 6.37376778 5.70557228 1.46875 3.0078125 C0.9840625 2.67523438 0.499375 2.34265625 0 2 C0 1.34 0 0.68 0 0 Z " fill="#9454B8" transform="translate(406,225)"/>
<path d="M0 0 C56.78371631 -0.04573229 113.5674308 -0.08099622 170.35116189 -0.10213066 C177.0480728 -0.10463221 183.74498368 -0.10721852 190.44189453 -0.10986328 C191.44155202 -0.11025556 191.44155202 -0.11025556 192.4614046 -0.11065576 C214.07923763 -0.11918497 235.69706024 -0.13421243 257.31488695 -0.15259444 C280.15096509 -0.17197718 302.98703864 -0.18398794 325.823125 -0.18817699 C339.51034094 -0.19092745 353.19752696 -0.19962866 366.88473369 -0.21583293 C376.2580672 -0.22636779 385.63138513 -0.22960861 395.00472413 -0.22700275 C400.42055508 -0.22571598 405.83633357 -0.22775112 411.2521553 -0.23841095 C416.20278608 -0.24808455 421.15332871 -0.24867361 426.10396339 -0.24179779 C427.90210459 -0.24094696 429.70025112 -0.24353376 431.49838172 -0.24976636 C433.92855044 -0.25770502 436.35839414 -0.25352038 438.78855705 -0.24609566 C439.49884109 -0.25134968 440.20912513 -0.25660371 440.94093293 -0.26201695 C445.7717084 -0.2282916 445.7717084 -0.2282916 448 2 C448.24291992 4.13891602 448.24291992 4.13891602 448.23046875 6.75390625 C448.22853516 7.69041016 448.22660156 8.62691406 448.22460938 9.59179688 C448.21236328 10.57212891 448.20011719 11.55246094 448.1875 12.5625 C448.18685547 13.54669922 448.18621094 14.53089844 448.18554688 15.54492188 C448.14017532 22.85982468 448.14017532 22.85982468 447 24 C442.33154772 24.14426614 437.67134047 24.04208415 433 24 C433 16.41 433 8.82 433 1 C290.11 1 147.22 1 0 1 C0 0.67 0 0.34 0 0 Z " fill="#707C85" transform="translate(33,473)"/>
<path d="M0 0 C2.20276037 -0.24441588 4.41341933 -0.41826648 6.625 -0.5625 C7.85476562 -0.66691406 9.08453125 -0.77132812 10.3515625 -0.87890625 C14.42128943 0.10148835 14.80143481 0.50064346 17.05078125 3.78515625 C18.06468218 5.50563844 19.04572497 7.24574425 20 9 C20.52948242 9.93900146 21.05896484 10.87800293 21.60449219 11.84545898 C23.29127752 14.87972513 24.93211024 17.9350977 26.5625 21 C27.66753518 23.06273233 28.77299746 25.12523592 29.87890625 27.1875 C30.66418701 28.65896484 30.66418701 28.65896484 31.46533203 30.16015625 C33.30103346 33.55705078 35.20338793 36.91323615 37.13256836 40.2578125 C38 42 38 42 38 44 C17.54 44 -2.92 44 -24 44 C-23.67 43.34 -23.34 42.68 -23 42 C0.265 42.495 0.265 42.495 24 43 C21.669375 38.7925 19.33875 34.585 16.9375 30.25 C16.21812256 28.9496582 15.49874512 27.64931641 14.75756836 26.30957031 C13.87016968 24.71000488 13.87016968 24.71000488 12.96484375 23.078125 C12.64192856 22.49581116 12.31901337 21.91349731 11.98631287 21.3135376 C9.17034531 16.25744096 6.23324173 11.28012631 3.25219727 6.31933594 C2 4 2 4 2 2 C0.02 2.99 0.02 2.99 -2 4 C-1.34 2.68 -0.68 1.36 0 0 Z " fill="#C694E0" transform="translate(197,148)"/>
<path d="M0 0 C44.88 0 89.76 0 136 0 C136 25 136 25 133 32 C128.38 32 123.76 32 119 32 C119.33 21.77 119.66 11.54 120 1 C80.4 1 40.8 1 0 1 C0 0.67 0 0.34 0 0 Z " fill="#7DB1DD" transform="translate(32,81)"/>
<path d="M0 0 C14.32494426 -0.0233302 28.64988559 -0.04091336 42.97484493 -0.05181217 C49.6257353 -0.05704174 56.27660786 -0.06414072 62.92749023 -0.07543945 C69.34002877 -0.08626571 75.75255504 -0.09227628 82.16510201 -0.09487724 C84.61764278 -0.09673197 87.07018285 -0.10035347 89.52271843 -0.10573006 C92.94476677 -0.11293702 96.36676371 -0.11399109 99.78881836 -0.11352539 C100.81380432 -0.11712067 101.83879028 -0.12071594 102.89483643 -0.12442017 C103.82176804 -0.1230455 104.74869965 -0.12167084 105.70372009 -0.12025452 C106.51397613 -0.12117631 107.32423216 -0.1220981 108.1590414 -0.12304783 C110 0 110 0 111 1 C111.08790975 3.29151417 111.10694038 5.58572524 111.09765625 7.87890625 C111.0962413 8.5655687 111.09482635 9.25223114 111.09336853 9.95970154 C111.08775479 12.16067801 111.07520007 14.36155409 111.0625 16.5625 C111.05748676 18.05143083 111.05292355 19.54036324 111.04882812 21.02929688 C111.03863021 24.68626805 111.01905779 28.34302117 111 32 C106.05 32 101.1 32 96 32 C96 21.77 96 11.54 96 1 C64.32 1 32.64 1 0 1 C0 0.67 0 0.34 0 0 Z " fill="#81B8E7" transform="translate(266,81)"/>
<path d="M0 0 C0.96164062 0.00064453 1.92328125 0.00128906 2.9140625 0.00195312 C3.91179687 0.01806641 4.90953125 0.03417969 5.9375 0.05078125 C6.93523437 0.04755859 7.93296875 0.04433594 8.9609375 0.04101562 C17.44048316 0.10353238 17.44048316 0.10353238 20.9375 2.36328125 C22.9375 5.36328125 22.9375 5.36328125 22.8125 8.86328125 C21.9375 12.36328125 21.9375 12.36328125 20.2265625 14.05273438 C15.85692414 16.55446419 10.85270476 15.87487371 5.9375 15.86328125 C4.844375 15.89164062 3.75125 15.92 2.625 15.94921875 C-5.34005318 15.96874094 -5.34005318 15.96874094 -8.8125 13.05859375 C-10.52819526 9.35912584 -10.21050439 7.23779608 -9.0625 3.36328125 C-6.12108708 0.51933965 -4.03508327 -0.01374246 0 0 Z " fill="#040506" transform="translate(406.0625,426.63671875)"/>
<path d="M0 0 C1.03253906 -0.01933594 2.06507813 -0.03867187 3.12890625 -0.05859375 C8.01606727 -0.02706368 10.66994958 0.0279285 14.71484375 2.9375 C16.5 5.625 16.5 5.625 16.5625 9.25 C15.37961925 13.0073859 14.80370408 13.69905786 11.5 15.625 C7.71093422 16.26500718 3.90000539 16.13450466 0.0625 16.125 C-1.49307617 16.16753906 -1.49307617 16.16753906 -3.08007812 16.2109375 C-10.68837322 16.23048354 -10.68837322 16.23048354 -14.68359375 13.25 C-16.5 10.625 -16.5 10.625 -17.125 8.125 C-14.93269617 -0.64421532 -7.43821547 -0.13929242 0 0 Z " fill="#050506" transform="translate(309.5,426.375)"/>
<path d="M0 0 C0.98484375 -0.00257813 1.9696875 -0.00515625 2.984375 -0.0078125 C12.21568772 0.11693497 12.21568772 0.11693497 16 3.5 C17.2197426 7.37447648 17.47106228 9.46456599 15.77734375 13.1875 C11.22071612 16.98148531 6.23292437 16.22216821 0.5 16.125 C-0.64082031 16.14433594 -1.78164063 16.16367187 -2.95703125 16.18359375 C-11.26846463 16.13476042 -11.26846463 16.13476042 -14.74609375 13.1171875 C-16.17652534 10.13155148 -16.72998735 8.74438823 -16 5.5 C-11.64382922 -0.68889379 -6.94322754 -0.19993587 0 0 Z " fill="#060708" transform="translate(309,387.5)"/>
<path d="M0 0 C0.98097656 -0.02835937 1.96195312 -0.05671875 2.97265625 -0.0859375 C7.56388796 -0.09832949 11.08570552 -0.07784933 14.8125 2.8046875 C17.125 5.5 17.125 5.5 17.25 9.125 C16.00669943 12.85490172 15.4289901 13.58402636 12.125 15.5 C8.14858965 16.14377125 4.1480798 16.0094884 0.125 16 C-0.968125 16.02835937 -2.06125 16.05671875 -3.1875 16.0859375 C-11.15255318 16.10545969 -11.15255318 16.10545969 -14.625 13.1953125 C-16.34069526 9.49584459 -16.02300439 7.37451483 -14.875 3.5 C-10.4941699 -0.70852967 -5.74579362 -0.01498251 0 0 Z " fill="#050607" transform="translate(411.875,387.5)"/>
<path d="M0 0 C1.71123047 -0.03577148 1.71123047 -0.03577148 3.45703125 -0.07226562 C11.76515607 -0.05762146 11.76515607 -0.05762146 15.27734375 2.90625 C16.87671479 6.3809219 16.79847373 7.97260205 15.5 11.5625 C13.28755436 14.06963615 11.53534466 15.40544413 8.18725586 15.91333008 C5.42667852 16.02896307 2.69944523 16.00933704 -0.0625 15.9375 C-1.00802734 15.93621094 -1.95355469 15.93492187 -2.92773438 15.93359375 C-10.9511395 15.83152923 -10.9511395 15.83152923 -14.5 13.5625 C-16.82749345 10.07125983 -17.00299316 8.67027749 -16.5 4.5625 C-12.07802791 -1.160014 -6.68862794 -0.06424106 0 0 Z " fill="#060709" transform="translate(412.5,349.4375)"/>
<path d="M0 0 C1.00224609 -0.00515625 2.00449219 -0.0103125 3.03710938 -0.015625 C4.07802734 -0.00015625 5.11894531 0.0153125 6.19140625 0.03125 C7.74698242 0.00804687 7.74698242 0.00804687 9.33398438 -0.015625 C13.90650448 0.007869 16.91582373 0.05469327 20.94140625 2.34375 C22.75390625 4.53125 22.75390625 4.53125 23.31640625 8.03125 C22.66226436 12.10146623 21.93607267 13.03020718 18.75390625 15.53125 C16.16015625 16.04882812 16.16015625 16.04882812 13.25390625 16.0625 C12.20203125 16.06765625 11.15015625 16.0728125 10.06640625 16.078125 C8.97328125 16.06265625 7.88015625 16.0471875 6.75390625 16.03125 C5.11421875 16.05445313 5.11421875 16.05445313 3.44140625 16.078125 C2.38953125 16.07296875 1.33765625 16.0678125 0.25390625 16.0625 C-0.70515625 16.05798828 -1.66421875 16.05347656 -2.65234375 16.04882812 C-5.99243416 15.38231912 -7.18540844 14.20012368 -9.24609375 11.53125 C-9.74609375 8.03125 -9.74609375 8.03125 -9.24609375 4.53125 C-6.41984171 0.90496244 -4.55384387 0.02255774 0 0 Z " fill="#040404" transform="translate(94.24609375,426.46875)"/>
<path d="M0 0 C1.14082031 -0.01095703 2.28164063 -0.02191406 3.45703125 -0.03320312 C11.84678174 0.0407371 11.84678174 0.0407371 14.81835938 2.41430664 C16.5 4.5625 16.5 4.5625 17.125 7.5 C16.41465306 10.9807 15.23709429 12.33855918 12.47460938 14.51733398 C8.53167884 16.60433765 4.29573329 16.23690467 -0.0625 16.125 C-0.99513672 16.13595703 -1.92777344 16.14691406 -2.88867188 16.15820312 C-7.21431037 16.1119561 -9.82074656 15.97005206 -13.5859375 13.7109375 C-16.07497034 10.91712512 -16.57627638 9.30004269 -16.5 5.5625 C-13.26522426 -1.4651278 -6.70749654 -0.1402132 0 0 Z " fill="#070808" transform="translate(309.5,349.4375)"/>
<path d="M0 0 C1.14533203 -0.01998047 2.29066406 -0.03996094 3.47070312 -0.06054688 C4.57220703 -0.05990234 5.67371094 -0.05925781 6.80859375 -0.05859375 C8.31957642 -0.06137329 8.31957642 -0.06137329 9.86108398 -0.06420898 C13.27709869 0.5702158 14.45733396 1.72172205 16.5625 4.4375 C17.0625 7.4375 17.0625 7.4375 16.5625 10.4375 C14.6954009 12.74025556 13.20602259 14.11573871 10.5625 15.4375 C7.1316548 15.73009649 3.69187345 15.71541989 0.25 15.75 C-0.70068359 15.77900391 -1.65136719 15.80800781 -2.63085938 15.83789062 C-7.00082838 15.87758985 -9.70867956 15.84774513 -13.57421875 13.671875 C-15.55659838 11.29468182 -16.07806389 10.41469408 -15.9375 7.375 C-15.4375 3.4375 -15.4375 3.4375 -14.25756836 1.71850586 C-10.30909768 -1.06051837 -4.64721706 -0.02867044 0 0 Z " fill="#070708" transform="translate(100.4375,349.5625)"/>
<path d="M0 0 C1.47726563 -0.03577148 1.47726563 -0.03577148 2.984375 -0.07226562 C7.77854514 -0.06254771 10.21973865 -0.01761997 14.15234375 2.90625 C16 5.5625 16 5.5625 16.5625 8.625 C15.86632443 12.26058353 14.86182485 13.26965048 12 15.5625 C9.40625 16.08007812 9.40625 16.08007812 6.5 16.09375 C5.448125 16.09890625 4.39625 16.1040625 3.3125 16.109375 C2.219375 16.09390625 1.12625 16.0784375 0 16.0625 C-1.6396875 16.08570313 -1.6396875 16.08570313 -3.3125 16.109375 C-4.364375 16.10421875 -5.41625 16.0990625 -6.5 16.09375 C-7.4590625 16.08923828 -8.418125 16.08472656 -9.40625 16.08007812 C-12.74636371 15.41356447 -13.93646785 14.22888854 -16 11.5625 C-16.5625 8.0625 -16.5625 8.0625 -16 4.5625 C-11.59804819 -0.63980669 -6.30791809 -0.07017972 0 0 Z " fill="#050606" transform="translate(101,387.4375)"/>
<path d="M0 0 C10.83984375 -0.09765625 10.83984375 -0.09765625 14 0 C16.15732833 2.15732833 15.18520919 6.94798753 15.1875 9.9375 C15.19974609 10.77474609 15.21199219 11.61199219 15.22460938 12.47460938 C15.22654297 13.27576172 15.22847656 14.07691406 15.23046875 14.90234375 C15.23457764 15.63960693 15.23868652 16.37687012 15.24291992 17.13647461 C15 19 15 19 13 21 C10.94228935 21.24609566 10.94228935 21.24609566 8.35568237 21.24050903 C7.37689117 21.24325836 6.39809998 21.24600769 5.38964844 21.24884033 C4.31215332 21.24164978 3.2346582 21.23445923 2.12451172 21.22705078 C0.99280548 21.22734283 -0.13890076 21.22763489 -1.30490112 21.22793579 C-5.0601152 21.22653812 -8.81513292 21.21095626 -12.5703125 21.1953125 C-15.16820162 21.19158393 -17.76609213 21.18873622 -20.36398315 21.18673706 C-26.5121659 21.17987089 -32.66026713 21.16409462 -38.80841911 21.14403808 C-45.80711315 21.12170136 -52.80581054 21.11069127 -59.80453134 21.10064721 C-74.20305902 21.07972897 -88.60152699 21.04453909 -103 21 C-103 20.67 -103 20.34 -103 20 C-69.01 20 -35.02 20 0 20 C0 13.4 0 6.8 0 0 Z " fill="#78AAD5" transform="translate(466,298)"/>
<path d="M0 0 C33 0 66 0 100 0 C100 6.6 100 13.2 100 20 C95.05 20 90.1 20 85 20 C85 13.73 85 7.46 85 1 C57.28 1 29.56 1 1 1 C1 7.27 1 13.54 1 20 C0.67 20 0.34 20 0 20 C0 13.4 0 6.8 0 0 Z " fill="#E4E8EC" transform="translate(211,279)"/>
<path d="M0 0 C4.95 0 9.9 0 15 0 C15 6.27 15 12.54 15 19 C-11.73 19 -38.46 19 -66 19 C-66 18.67 -66 18.34 -66 18 C-44.22 18 -22.44 18 0 18 C0 12.06 0 6.12 0 0 Z " fill="#CDD1D5" transform="translate(230,15)"/>
<path d="M0 0 C10.83984375 -0.09765625 10.83984375 -0.09765625 14 0 C15.62200515 1.62200515 15.1299075 3.42023031 15.1328125 5.65625 C15.13474609 7.06583984 15.13474609 7.06583984 15.13671875 8.50390625 C15.13285156 9.49261719 15.12898438 10.48132813 15.125 11.5 C15.12886719 12.48871094 15.13273437 13.47742188 15.13671875 14.49609375 C15.13542969 15.43582031 15.13414062 16.37554687 15.1328125 17.34375 C15.13168457 18.21193359 15.13055664 19.08011719 15.12939453 19.97460938 C15 22 15 22 14 23 C9.33154772 23.14426614 4.67134047 23.04208415 0 23 C0 15.41 0 7.82 0 0 Z " fill="#778995" transform="translate(466,474)"/>
</svg>
